# xmcd
#
# Track frame offsets: 
#        150
#        5512
#        30675
#        54500
#        73912
#        93725
#        115687
#        141482
#        160425
#        188850
#        213900
#        233212
#
# Disc length: 3481 seconds
#
# Revision: 1
# Processed by: cddbd v1.5.2PL0 Copyright (c) Steve Scherf et al.
# Submitted via: ExactAudioCopy v1.3
#
DISCID=ae0d970c
DTITLE=Sojiro - Futo
DYEAR=1992
DGENRE=New Age
TTITLE0=Nagi
TTITLE1=Kaze-no Kami
TTITLE2=Kaze-ni Yureru Kigitachi-to
TTITLE3=Toritachi-no Mori-de
TTITLE4=Kaze-ga Tanima-o Orite Kuru
TTITLE5=Hayashi-o Kuguri Nukete
TTITLE6=Nagareru Kumo-ni
TTITLE7=Kaze-no Matsuri
TTITLE8=Asa
TTITLE9=Futo
TTITLE10=Hikari-ni Mukatte
TTITLE11=Inishie-no Kaze
EXTD=YEAR: 1992
EXTT0=
EXTT1=
EXTT2=
EXTT3=
EXTT4=
EXTT5=
EXTT6=
EXTT7=
EXTT8=
EXTT9=
EXTT10=
EXTT11=
PLAYORDER=
